<svg viewBox="0 0 742 230" xmlns="http://www.w3.org/2000/svg" role="img" aria-label="IOT TECHS — Make Tomorrow Safer Today">
  <!-- IOT TECHS wordmark — squared, segment-gapped letterforms on a 100-unit cap grid.
       Recreated as vector from the owner's logo art (2026-07-14). Single color: #111. -->
  <g fill="#111111">
    <!-- I -->
    <rect x="0" y="0" width="22" height="100" rx="11" />
    <!-- O -->
    <rect x="49" y="11" width="62" height="78" rx="26" fill="none" stroke="#111111" stroke-width="22" />
    <!-- T -->
    <g transform="translate(138)">
      <rect x="0" y="0" width="84" height="22" rx="11" />
      <rect x="31" y="0" width="22" height="100" rx="11" />
    </g>
    <!-- T -->
    <g transform="translate(270)">
      <rect x="0" y="0" width="84" height="22" rx="11" />
      <rect x="31" y="0" width="22" height="100" rx="11" />
    </g>
    <!-- E -->
    <g transform="translate(370)">
      <rect x="0" y="0" width="22" height="100" rx="11" />
      <rect x="30" y="0" width="42" height="22" rx="11" />
      <rect x="30" y="39" width="42" height="22" rx="11" />
      <rect x="30" y="78" width="42" height="22" rx="11" />
    </g>
    <!-- C -->
    <rect x="469" y="11" width="62" height="78" rx="26" fill="none" stroke="#111111" stroke-width="22"
          stroke-linecap="round" stroke-dasharray="46.8 34 154.6" />
    <!-- H -->
    <g transform="translate(558)">
      <rect x="0" y="0" width="22" height="100" rx="11" />
      <rect x="62" y="0" width="22" height="100" rx="11" />
      <rect x="30" y="39" width="24" height="22" rx="11" />
    </g>
    <!-- S -->
    <g transform="translate(658)">
      <rect x="0" y="0" width="84" height="22" rx="11" />
      <rect x="0" y="11" width="22" height="40" rx="11" />
      <rect x="0" y="39" width="84" height="22" rx="11" />
      <rect x="62" y="50" width="22" height="39" rx="11" />
      <rect x="0" y="78" width="84" height="22" rx="11" />
    </g>
  </g>
  <!-- "Make Tomorrow Safer Today" pill + globe -->
  <g transform="translate(56 138)">
    <rect x="0" y="0" width="630" height="76" rx="38" fill="none" stroke="#111111" stroke-width="7" />
    <text x="280" y="51" text-anchor="middle" font-family="Helvetica, Arial, sans-serif" font-size="42"
          fill="#111111" letter-spacing="0.5">Make Tomorrow Safer Today</text>
    <g transform="translate(556 14)" fill="none" stroke="#111111" stroke-width="3.4">
      <circle cx="24" cy="24" r="22" />
      <ellipse cx="24" cy="24" rx="10" ry="22" />
      <path d="M2 24h44M5.5 13h37M5.5 35h37" />
    </g>
  </g>
</svg>
